<?xml version="1.0" encoding="UTF-8"?>
<svg version="1.1" xmlns="http://www.w3.org/2000/svg" width="1024" height="1024">
<path d="M0 0 C337.92 0 675.84 0 1024 0 C1024 337.92 1024 675.84 1024 1024 C686.08 1024 348.16 1024 0 1024 C0 686.08 0 348.16 0 0 Z " fill="#FCFCFB" transform="translate(0,0)"/>
<path d="M0 0 C2.18328608 0.00358296 4.36657684 0.00493329 6.54986572 0.00416565 C11.105645 0.00883653 15.66070913 0.03352568 20.21630859 0.07397461 C26.04234277 0.12506318 31.86759656 0.13641271 37.69382858 0.13413906 C42.19441105 0.13495626 46.69482453 0.15143137 51.19535065 0.17314339 C53.34344457 0.1826554 55.49155751 0.18859433 57.63967133 0.19082451 C60.64259731 0.19736011 63.64471095 0.22368348 66.64746094 0.25561523 C67.52556931 0.25425568 68.40367767 0.25289612 69.30839539 0.25149536 C78.74580636 0.39756716 86.3879506 3.52944199 93.078125 10.37890625 C99.57781287 18.84543354 99.98106716 26.80434998 99.703125 37.25390625 C99.68507813 38.54876953 99.66703125 39.84363281 99.6484375 41.17773438 C99.60161822 44.34974039 99.53604973 47.52017329 99.453125 50.69140625 C100.30788422 50.68474442 101.16264343 50.67808258 102.04330444 50.67121887 C110.13403821 50.61088336 118.22469544 50.5653184 126.31560326 50.53596973 C130.47433516 50.5203736 134.63287976 50.49924728 138.79150391 50.46508789 C142.81155846 50.43227675 146.83143387 50.41450783 150.85161209 50.40677452 C152.37847332 50.40126977 153.90532574 50.39052124 155.43210983 50.37421608 C169.16638748 50.2334951 180.18665761 51.80068737 190.4296875 61.578125 C197.27903887 68.99582681 200.5682617 76.20963918 200.59356689 86.29324341 C200.59802358 87.28621502 200.59802358 87.28621502 200.6025703 88.29924667 C200.61123742 90.51607964 200.61276387 92.73285847 200.61425781 94.94970703 C200.61888751 96.53996394 200.62391237 98.13021973 200.62930298 99.72047424 C200.64241709 104.04101854 200.64887037 108.36154731 200.65331364 112.6821084 C200.65624684 115.38380676 200.66035219 118.08550089 200.66481781 120.78719711 C200.67849208 129.24688545 200.68815826 137.70656412 200.6920197 146.16626275 C200.69649604 155.91869114 200.71402449 165.67097906 200.7430203 175.42336476 C200.76467335 182.96918972 200.77472597 190.51497527 200.77606082 198.06083095 C200.77710654 202.56375269 200.78296428 207.06654238 200.80088043 211.5694313 C200.81742317 215.80971327 200.81948669 220.04976483 200.81074142 224.29006767 C200.80997427 225.8403822 200.81427099 227.39070943 200.82419968 228.94099236 C200.90622734 242.55519487 199.25396378 253.51909895 189.56640625 263.66796875 C179.63953073 272.83423888 169.15377617 275.01894715 155.953125 274.88671875 C154.87683838 274.88388885 153.80055176 274.88105896 152.69165039 274.87814331 C149.27869201 274.86701356 145.8660031 274.8419222 142.453125 274.81640625 C140.12891006 274.80636714 137.80469098 274.79724292 135.48046875 274.7890625 C129.80450199 274.76880566 124.12911256 274.72964269 118.453125 274.69140625 C118.453125 267.43140625 118.453125 260.17140625 118.453125 252.69140625 C121.77632813 252.65402344 125.09953125 252.61664062 128.5234375 252.578125 C131.75039158 252.53188255 134.97723091 252.48065867 138.20410156 252.42895508 C140.44263711 252.39574959 142.68125549 252.36770409 144.91992188 252.3449707 C148.14228539 252.3113448 151.36389274 252.25902353 154.5859375 252.203125 C156.08158737 252.19354012 156.08158737 252.19354012 157.60745239 252.1837616 C163.01970857 252.06985566 166.71812833 251.58061144 171.453125 248.69140625 C172.443125 248.36140625 173.433125 248.03140625 174.453125 247.69140625 C175.63703723 245.3151528 175.63703723 245.3151528 176.453125 242.69140625 C176.783125 241.70140625 177.113125 240.71140625 177.453125 239.69140625 C177.54391457 237.21207108 177.57921749 234.76151645 177.56665039 232.2824707 C177.56686943 231.15527618 177.56686943 231.15527618 177.5670929 230.00531006 C177.56639629 227.52173983 177.55861567 225.03824462 177.55078125 222.5546875 C177.54891618 220.83261659 177.54749269 219.11054514 177.54649353 217.38847351 C177.5426754 212.85601334 177.53285111 208.32358521 177.52178955 203.7911377 C177.51156031 199.16610141 177.50699266 194.54105996 177.50195312 189.91601562 C177.49122823 180.84113175 177.47416023 171.76627167 177.453125 162.69140625 C176.78925781 162.96855469 176.12539063 163.24570312 175.44140625 163.53125 C174.55839844 163.89347656 173.67539062 164.25570312 172.765625 164.62890625 C171.46044922 165.16837891 171.46044922 165.16837891 170.12890625 165.71875 C165.37291206 167.44757125 161.0989957 167.81295066 156.05859375 167.7890625 C154.85654297 167.78583984 153.65449219 167.78261719 152.41601562 167.77929688 C151.17013672 167.77091797 149.92425781 167.76253906 148.640625 167.75390625 C147.37541016 167.74939453 146.11019531 167.74488281 144.80664062 167.74023438 C141.6887818 167.72846887 138.57094735 167.71053399 135.453125 167.69140625 C135.453125 160.43140625 135.453125 153.17140625 135.453125 145.69140625 C137.3815625 145.665625 139.31 145.63984375 141.296875 145.61328125 C143.84898048 145.55698481 146.40106294 145.49963782 148.953125 145.44140625 C150.2215625 145.42722656 151.49 145.41304687 152.796875 145.3984375 C161.30984023 145.1767457 167.63613506 144.60884329 173.828125 138.25390625 C177.62049769 132.27362624 177.760471 127.27758828 177.75390625 120.3515625 C177.75819138 119.35184921 177.7624765 118.35213593 177.76689148 117.3221283 C177.77262466 115.21158606 177.77314251 113.10102407 177.76879883 110.99047852 C177.76563951 107.76869876 177.78910892 104.54783816 177.81445312 101.32617188 C177.81672634 99.27213657 177.81742951 97.21809881 177.81640625 95.1640625 C177.83022087 93.72475121 177.83022087 93.72475121 177.84431458 92.25636292 C177.79981357 85.79522754 176.99156355 81.52924966 172.54780483 76.56135654 C167.86736863 73.73321809 163.52000551 74.13584974 158.14845276 74.17674255 C156.99276871 74.16979703 155.83708466 74.1628515 154.64637989 74.1556955 C151.44241646 74.14056506 148.23904881 74.14337574 145.03508508 74.15384853 C141.5782705 74.16083813 138.12155104 74.14484445 134.6647644 74.1318512 C127.89420085 74.11020163 121.1238053 74.11034053 114.3532185 74.11847674 C108.85041648 74.12477508 103.34766348 74.12364124 97.84486198 74.11720467 C97.06184454 74.11630301 96.2788271 74.11540136 95.47208185 74.11447238 C93.8814129 74.11262119 92.29074395 74.11075863 90.70007502 74.10888482 C75.78119388 74.09230293 60.86240727 74.10102875 45.9435318 74.1178704 C32.29374963 74.13256675 18.64418759 74.11794062 4.99443377 74.08910023 C-9.02019133 74.05970937 -23.03471482 74.0487331 -37.04936939 74.05828243 C-38.63451165 74.05930499 -40.21965393 74.0602996 -41.80479622 74.06126595 C-42.58472021 74.06174234 -43.36464421 74.06221873 -44.16820226 74.06270955 C-49.66379894 74.06487415 -55.15929946 74.05506716 -60.6548748 74.04049492 C-67.35317499 74.02298135 -74.05119453 74.02307463 -80.74948364 74.04584657 C-84.16705831 74.05699812 -87.58413837 74.06013157 -91.00169182 74.04154587 C-94.70667642 74.02568386 -98.41029953 74.04050446 -102.11521912 74.06321716 C-103.19546984 74.05138143 -104.27572056 74.03954571 -105.38870615 74.02735132 C-111.76179512 74.09520493 -111.76179512 74.09520493 -117.19885349 77.10566807 C-120.26409285 80.48123614 -120.67313886 81.95049753 -120.72387695 86.38134766 C-120.73671219 87.35641266 -120.74954742 88.33147766 -120.76277161 89.33609009 C-120.77015854 90.39436005 -120.77754547 91.45263 -120.78515625 92.54296875 C-120.793228 93.63096771 -120.80129974 94.71896667 -120.80961609 95.8399353 C-120.82346751 98.14831952 -120.83418491 100.45672431 -120.84204102 102.76513672 C-120.85920377 106.28132549 -120.9030757 109.79656194 -120.94726562 113.3125 C-120.95739686 115.55598267 -120.96591161 117.79947334 -120.97265625 120.04296875 C-120.99016434 121.08909332 -121.00767242 122.1352179 -121.02571106 123.21304321 C-121.00703561 129.55813186 -120.48471043 134.56182885 -116.546875 139.69140625 C-111.1013254 144.34407121 -106.19585606 145.42347061 -99.19335938 145.35083008 C-98.29486267 145.36131378 -97.39636597 145.37179749 -96.47064209 145.38259888 C-93.52694516 145.41119693 -90.5844351 145.40507528 -87.640625 145.3984375 C-85.58938128 145.41156176 -83.53815046 145.42686821 -81.48693848 145.44425964 C-76.10784051 145.48403706 -70.7290812 145.49429545 -65.34985352 145.49829102 C-59.85292332 145.50763608 -54.35619097 145.54505829 -48.859375 145.58007812 C-38.08850415 145.64458046 -27.31792704 145.67528381 -16.546875 145.69140625 C-16.546875 152.95140625 -16.546875 160.21140625 -16.546875 167.69140625 C-28.23908746 167.75933157 -39.93116768 167.81430858 -51.62353325 167.84684277 C-57.05345905 167.86246185 -62.48324221 167.88363131 -67.91308594 167.91772461 C-73.15858477 167.95045225 -78.40394685 167.96828749 -83.64953995 167.97603798 C-85.64529699 167.98155748 -87.64104702 167.99233547 -89.63674545 168.00859642 C-92.44402672 168.03054903 -95.25075143 168.03336577 -98.05810547 168.03198242 C-98.87306992 168.04276825 -99.68803436 168.05355408 -100.5276947 168.06466675 C-108.05123335 168.02485967 -114.88654837 166.19810992 -121.546875 162.69140625 C-121.63975503 172.5927127 -121.71073114 182.49391467 -121.75412369 192.39556885 C-121.77495514 196.99385012 -121.80319109 201.59183226 -121.84863281 206.18994141 C-121.89224976 210.63144857 -121.91604549 215.07266889 -121.92638397 219.51437378 C-121.933747 221.20478833 -121.94812521 222.89518805 -121.96979523 224.58547974 C-122.44420845 236.84264908 -122.44420845 236.84264908 -117.546875 247.69140625 C-111.25087343 253.19065959 -103.62733387 252.29605112 -95.64453125 252.30078125 C-94.19720117 252.31577855 -92.7498881 252.33250894 -91.30259705 252.35089111 C-87.51328707 252.39440386 -83.72420788 252.4145276 -79.93469238 252.42962646 C-76.05983931 252.44925602 -72.18523338 252.49121921 -68.31054688 252.53125 C-60.7226917 252.60637788 -53.13503118 252.65470722 -45.546875 252.69140625 C-45.546875 259.95140625 -45.546875 267.21140625 -45.546875 274.69140625 C-54.07535096 274.78223878 -62.60344275 274.85542575 -71.13227463 274.89865494 C-75.09373888 274.91941619 -79.05485139 274.94752006 -83.01611328 274.99316406 C-86.84816124 275.03703639 -90.67987364 275.06062923 -94.51215363 275.07091522 C-95.96481855 275.07823322 -97.4174678 275.09252068 -98.86998749 275.11432648 C-113.05344212 275.31853643 -124.04406266 272.7926484 -134.44921875 262.87890625 C-141.61402286 255.36570786 -144.65279805 246.31190432 -144.70077515 236.06506348 C-144.7051574 235.40040998 -144.70953965 234.73575648 -144.7140547 234.05096197 C-144.72740316 231.82498733 -144.73361273 229.59905225 -144.73974609 227.37304688 C-144.74765042 225.77618228 -144.75591958 224.17931946 -144.76452637 222.5824585 C-144.79071657 217.33754169 -144.80605482 212.09261704 -144.8203125 206.84765625 C-144.82567413 205.03887426 -144.83105165 203.23009232 -144.83644485 201.42131042 C-144.85807256 193.89281149 -144.87680612 186.36431467 -144.88806725 178.83579254 C-144.90428527 168.06579714 -144.93741202 157.2961637 -144.99446809 146.52630472 C-145.03325958 138.9439337 -145.05271103 131.3616591 -145.05798781 123.77919149 C-145.06162976 119.25597531 -145.07352661 114.73314546 -145.10609055 110.21003723 C-145.13633237 105.94830131 -145.14242619 101.68718219 -145.13070679 97.42536163 C-145.13048737 95.86941977 -145.13868244 94.31344795 -145.15636063 92.75760651 C-145.29402239 79.93392245 -143.0419516 69.21005793 -133.93359375 59.66796875 C-126.33315801 53.37366353 -118.18423169 50.56092136 -108.48339844 50.57788086 C-107.42913666 50.57766182 -107.42913666 50.57766182 -106.35357666 50.57743835 C-104.03776937 50.57813326 -101.72204319 50.58590587 -99.40625 50.59375 C-97.79770959 50.59561568 -96.18916862 50.59703888 -94.58062744 50.59803772 C-90.35231958 50.60185109 -86.12404621 50.6116713 -81.89575195 50.6227417 C-77.57894355 50.63298119 -73.26212956 50.63754078 -68.9453125 50.64257812 C-60.47915086 50.65329463 -52.01301722 50.67035688 -43.546875 50.69140625 C-43.5782959 49.44435913 -43.5782959 49.44435913 -43.61035156 48.17211914 C-43.6790857 45.04667359 -43.7289439 41.92161704 -43.76660156 38.7956543 C-43.79628281 36.79384574 -43.84714558 34.79238706 -43.8984375 32.79101562 C-43.99277929 23.42759276 -42.90255475 15.19605656 -36.22052002 8.09422302 C-25.32757149 -1.03603502 -13.45696962 -0.14633511 0 0 Z " fill="#3D2DA3" transform="translate(317.546875,287.30859375)"/>
<path d="M0 0 C10.84150279 8.8435317 18.1465197 18.74157468 23.33789062 31.75146484 C23.85222656 33.02570313 23.85222656 33.02570313 24.37695312 34.32568359 C29.58799724 49.83706258 26.97236644 68.38515243 20.21289062 82.87646484 C11.0238275 100.21431979 -2.63819486 110.7197025 -20.95117188 116.85302734 C-38.45543954 121.50056243 -54.99078537 118.77104429 -70.66601562 110.17724609 C-73.71108122 108.46499479 -73.71108122 108.46499479 -77.66210938 108.75146484 C-79.48085478 110.30702994 -79.48085478 110.30702994 -81.22460938 112.56396484 C-86.06666547 118.18464303 -91.19143534 123.48128228 -96.41210938 128.75146484 C-97.2404126 129.60071533 -98.06871582 130.44996582 -98.92211914 131.32495117 C-99.71803467 132.12570068 -100.5139502 132.9264502 -101.33398438 133.75146484 C-102.04651367 134.47333984 -102.75904297 135.19521484 -103.49316406 135.93896484 C-106.39996606 138.36806188 -109.11821204 139.64674833 -112.90820312 139.90380859 C-118.73395308 139.33265664 -121.60168894 138.00995457 -125.66210938 133.75146484 C-127.37206763 130.90153442 -127.97892959 128.69271241 -128.03710938 125.37646484 C-128.06546875 124.64685547 -128.09382813 123.91724609 -128.12304688 123.16552734 C-126.81641562 116.32232299 -120.62604865 111.50736164 -115.84960938 106.87646484 C-111.07750332 102.22534176 -106.47673451 97.52638926 -102.14355469 92.45996094 C-100.40842727 90.45890266 -98.57241894 88.58536203 -96.66210938 86.75146484 C-97.07460938 85.53458984 -97.48710937 84.31771484 -97.91210938 83.06396484 C-98.18152344 82.22607422 -98.4509375 81.38818359 -98.72851562 80.52490234 C-99.34393892 78.69665742 -100.01786558 76.886939 -100.75195312 75.10302734 C-106.191746 60.66144198 -105.77480115 43.08241167 -100.07226562 28.80224609 C-99.37423828 27.29210937 -99.37423828 27.29210937 -98.66210938 25.75146484 C-98.28957031 24.92001953 -97.91703125 24.08857422 -97.53320312 23.23193359 C-89.27646713 6.80476896 -74.60455688 -4.43018933 -57.47460938 -10.35009766 C-38.13993098 -15.52212413 -16.16811888 -12.14508812 0 0 Z " fill="#5EB5F2" transform="translate(415.662109375,391.24853515625)"/>
<path d="M0 0 C6.93 0 13.86 0 21 0 C21.495 20.295 21.495 20.295 22 41 C24.64 38.69 27.28 36.38 30 34 C38.67821893 29.58734631 48.38946564 28.68632984 58 30 C64.7022146 32.20448118 70.48438774 35.49659756 75 41 C75.64582031 41.75023437 76.29164063 42.50046875 76.95703125 43.2734375 C79.09354852 46.1248506 80.36489385 48.76224302 81.6875 52.0625 C82.31205078 53.59583984 82.31205078 53.59583984 82.94921875 55.16015625 C87.23935824 66.75469679 86.70285067 82.65028481 82.37890625 94.17578125 C77.32714492 104.52258986 70.60899266 111.31043172 59.9765625 115.8671875 C51.24887737 118.55546182 40.12862252 118.28681005 32 114 C28.47529464 111.58634307 25.02754535 109.02754535 22 106 C21.67 109.3 21.34 112.6 21 116 C14.07 116 7.14 116 0 116 C0 77.72 0 39.44 0 0 Z " fill="#3B2BA2" transform="translate(372,575)"/>
<path d="M0 0 C7.93738934 6.42611041 12.26647028 15.10848326 14.44140625 24.9765625 C15.58270491 38.51472595 15.28342178 52.21736606 6.18359375 63.10546875 C5.32121094 64.03166016 5.32121094 64.03166016 4.44140625 64.9765625 C3.48621094 66.01103516 3.48621094 66.01103516 2.51171875 67.06640625 C-6.74977522 76.17523823 -16.53145484 78.45431526 -29.12109375 78.6015625 C-37.78024324 78.51399104 -45.06809036 77.66583974 -52.55859375 72.9765625 C-53.31011719 72.50734375 -54.06164062 72.038125 -54.8359375 71.5546875 C-63.97874333 65.22112368 -69.26205641 57.07647764 -71.80859375 46.2890625 C-74.22308855 32.10939302 -72.3424706 18.47064985 -64.44140625 6.26171875 C-48.56175243 -13.01130507 -19.51923388 -13.3537699 0 0 Z " fill="#3C2CA2" transform="translate(344.55859375,614.0234375)"/>
<path d="M0 0 C2.28648069 1.4357867 4.3950636 2.96495717 6.5078125 4.64453125 C7.12269531 5.12277344 7.73757813 5.60101563 8.37109375 6.09375 C14.8168765 11.76775388 19.74444788 21.2245908 21.5078125 29.64453125 C22.37625871 44.00948572 21.36160855 55.43076819 11.5078125 66.64453125 C10.75564453 67.55332031 10.75564453 67.55332031 9.98828125 68.48046875 C3.14685954 76.10424282 -7.45684207 81.07958507 -17.60546875 81.89453125 C-32.10658487 82.40167411 -43.07338903 77.68349318 -53.6796875 68.01953125 C-62.27910229 59.07682644 -66.03870206 47.30713038 -65.80078125 35.1171875 C-64.71978196 22.95252458 -59.51955827 13.07825119 -50.6171875 4.83203125 C-35.85739705 -7.27270985 -16.79281378 -9.13339558 0 0 Z " fill="#FBFBFB" transform="translate(398.4921875,406.35546875)"/>
<path d="M0 0 C8.25 0 16.5 0 25 0 C29.49889115 11.24722788 29.49889115 11.24722788 31.28662109 16.57275391 C31.88777237 18.35608627 31.88777237 18.35608627 32.50106812 20.17544556 C32.70816784 20.79418171 32.91526756 21.41291786 33.12864304 22.05040359 C33.79159771 24.03081148 34.45819983 26.00996099 35.12564087 27.98886108 C36.54522598 32.19985683 37.96043168 36.4123168 39.375 40.625 C41.23365392 46.15997728 43.0943721 51.69424756 44.9609375 57.2265625 C45.18384209 57.88741096 45.40674667 58.54825943 45.63640594 59.22913361 C48.90149541 68.89602962 52.30908087 78.48719742 56 88 C56.27260147 87.20503113 56.54520294 86.41006226 56.82606506 85.59100342 C59.42801454 78.00348599 62.03058131 70.41618062 64.63379765 62.82909775 C65.97127922 58.93093608 67.30854324 55.03270009 68.64526367 51.13427734 C71.87578628 41.71315036 75.11004898 32.29332379 78.35361481 22.87667847 C78.96524549 21.10090429 79.57647635 19.3249924 80.18768311 17.54907227 C81.18287753 14.66171554 82.18213326 11.77581325 83.18359375 8.890625 C83.46324478 8.07849548 83.74289581 7.26636597 84.03102112 6.42962646 C85.88402635 1.11597365 85.88402635 1.11597365 87 0 C88.85369611 -0.08737645 90.71067541 -0.10698153 92.56640625 -0.09765625 C93.69111328 -0.09443359 94.81582031 -0.09121094 95.97460938 -0.08789062 C97.15861328 -0.07951172 98.34261719 -0.07113281 99.5625 -0.0625 C100.75037109 -0.05798828 101.93824219 -0.05347656 103.16210938 -0.04882812 C106.10812226 -0.03699675 109.05403681 -0.02051287 112 0 C110.04037482 6.75759168 107.86447451 13.39949184 105.47265625 20.015625 C104.96053337 21.44103104 104.96053337 21.44103104 104.43806458 22.89523315 C103.31594018 26.01460217 102.18947051 29.13237881 101.0625 32.25 C100.48281464 33.85775299 100.48281464 33.85775299 99.89141846 35.49798584 C90.43233621 61.7287169 80.72614224 87.86733808 71 114 C61.1 114 51.2 114 41 114 C36.02498191 101.33224827 31.25232176 88.61072859 26.625 75.8125 C25.941452 73.92565381 25.25777384 72.03885477 24.57397461 70.15209961 C23.50132643 67.19181711 22.42902622 64.23141061 21.35771179 61.27064514 C19.05130883 54.8968986 16.73675422 48.52617649 14.41625977 42.157547 C12.84321209 37.83915792 11.27313528 33.51969212 9.70355225 29.20004272 C8.9459802 27.1169526 8.18724134 25.03428643 7.42730713 22.95205688 C6.36614204 20.04346711 5.30950332 17.13327058 4.25390625 14.22265625 C3.78004738 12.92874969 3.78004738 12.92874969 3.2966156 11.60870361 C3.00738724 10.80849792 2.71815887 10.00829224 2.42016602 9.18383789 C2.16864273 8.49270401 1.91711945 7.80157013 1.65797424 7.0894928 C0.92902993 4.77462423 0.47595961 2.37979805 0 0 Z " fill="#5EB5F2" transform="translate(457,577)"/>
<path d="M0 0 C0.87035889 -0.01023193 1.74071777 -0.02046387 2.63745117 -0.03100586 C12.56653628 0.10287997 21.89230246 2.67941151 29.375 9.4375 C36.97901337 18.9517899 36.67085769 31.38917776 36.5703125 42.98046875 C36.5674826 44.23007889 36.56465271 45.47968903 36.56173706 46.76716614 C36.55251184 50.05015022 36.53462088 53.3329285 36.5123291 56.61584473 C36.49167588 59.98150141 36.4826942 63.34718851 36.47265625 66.71289062 C36.45072157 73.28784954 36.41625754 79.86263509 36.375 86.4375 C29.445 86.4375 22.515 86.4375 15.375 86.4375 C14.88 81.9825 14.88 81.9825 14.375 77.4375 C13.570625 78.18 12.76625 78.9225 11.9375 79.6875 C3.42877629 86.78482404 -6.84602916 88.38394622 -17.625 87.4375 C-24.92147306 85.69844424 -31.42859352 83.01557895 -35.8359375 76.703125 C-39.97373109 69.8361484 -40.33416468 63.31935885 -39.625 55.4375 C-37.89325631 49.15732108 -33.91992242 45.03895043 -28.625 41.4375 C-16.18400615 34.47054344 0.55871041 35.87307699 14.375 35.4375 C14.24012545 33.99814748 14.09812236 32.55946178 13.953125 31.12109375 C13.87481445 30.31986084 13.79650391 29.51862793 13.71582031 28.69311523 C13.25648449 25.65314124 12.36219365 23.77954966 10.375 21.4375 C5.13927929 18.8872264 0.09442545 18.73305464 -5.625 19.4375 C-8.89365923 20.80697778 -11.12719865 22.93969865 -13.625 25.4375 C-13.955 26.7575 -14.285 28.0775 -14.625 29.4375 C-21.885 29.4375 -29.145 29.4375 -36.625 29.4375 C-35.55095809 19.77112283 -33.95339234 14.35797606 -27.0625 7.625 C-18.88185054 1.13481685 -10.13835643 0.09183455 0 0 Z " fill="#5DB5F2" transform="translate(801.625,604.5625)"/>
<path d="M0 0 C0.95583984 -0.020625 1.91167969 -0.04125 2.89648438 -0.0625 C12.87737982 -0.11692888 20.04620068 1.99119226 27.359375 8.93359375 C32.14527924 14.60967618 33.3125 19.93664725 33.3125 27.25 C27.0425 27.25 20.7725 27.25 14.3125 27.25 C13.3225 25.27 12.3325 23.29 11.3125 21.25 C7.65999588 17.78012109 4.7159317 16.94986814 -0.1875 16.75 C-5.05243985 16.96238482 -8.25545259 17.53967848 -11.6875 21.25 C-12.46886808 24.30779479 -12.20316421 26.00131546 -11.6875 29.25 C-8.68910071 32.22892341 -5.57857873 32.9829541 -1.5234375 33.8984375 C-0.31816406 34.18203125 0.88710938 34.465625 2.12890625 34.7578125 C4.64399638 35.33047918 7.15961335 35.9008375 9.67578125 36.46875 C20.04012647 38.91389839 29.0113739 41.29311951 35.25390625 50.3828125 C38.56880568 56.22975689 38.36920432 64.30327302 36.6640625 70.671875 C32.87543387 79.02628685 25.89946048 82.86681907 17.69189453 86.19604492 C12.04327794 87.95771793 6.62230484 87.93560214 0.75 87.8125 C-0.39146484 87.82345703 -1.53292969 87.83441406 -2.70898438 87.84570312 C-13.39049382 87.75419962 -22.25528366 85.48995858 -30.09765625 77.984375 C-35.41733089 72.18109358 -35.6875 68.03378252 -35.6875 60.25 C-28.7575 60.25 -21.8275 60.25 -14.6875 60.25 C-13.6975 62.56 -12.7075 64.87 -11.6875 67.25 C-7.00210112 71.07229909 -1.5920693 70.60756488 4.19140625 70.6484375 C7.92527352 70.17177359 10.62911617 68.93338383 13.3125 66.25 C13.81281206 62.83428147 13.81281206 62.83428147 13.3125 59.25 C8.93026596 55.61191891 3.15008576 54.73578716 -2.25 53.375 C-26.56643003 46.92642199 -26.56643003 46.92642199 -32.6875 37.25 C-35.70516157 30.97940155 -35.90555907 24.03487023 -33.77734375 17.421875 C-29.70268354 8.66987172 -23.53828589 4.53283695 -14.6875 1.25 C-9.84555154 -0.1720113 -5.00928971 0.02648666 0 0 Z " fill="#5DB5F2" transform="translate(651.6875,604.75)"/>
<path d="M0 0 C7.59 0 15.18 0 23 0 C23.06794737 10.90990914 23.1229149 21.81967628 23.15543652 32.72974968 C23.17105021 37.796476 23.19220958 42.86304925 23.22631836 47.9296875 C23.25906555 52.82505917 23.27688528 57.72028418 23.28463173 62.61575699 C23.29014777 64.47754345 23.30091888 66.33932246 23.31719017 68.20104599 C23.44014893 82.86114775 22.77043652 93.50418903 12.44140625 104.6875 C4.35232712 112.44680852 -5.26292737 113.55314185 -16.00415039 113.40234375 C-28.16746726 112.97619788 -36.21625474 109.91519401 -44.75 101.1875 C-49.73856524 94.12036592 -51 89.8960169 -51 81 C-43.08 81 -35.16 81 -27 81 C-26.01 83.31 -25.02 85.62 -24 88 C-21.69964267 90.41908545 -20.46634015 90.92879813 -17.16015625 91.43359375 C-10.76553618 91.5018457 -10.76553618 91.5018457 -4.875 89.3125 C-0.98823159 84.51881896 -0.6984452 79.89924236 -0.68115234 73.9050293 C-0.66608391 72.70424492 -0.66608391 72.70424492 -0.65071106 71.47920227 C-0.61992341 68.84421478 -0.60285629 66.20932871 -0.5859375 63.57421875 C-0.56722229 61.74289582 -0.54764861 59.91158147 -0.5272522 58.08027649 C-0.47596228 53.26843331 -0.43631972 48.45656219 -0.39910889 43.64459229 C-0.35904958 38.73109033 -0.30796601 33.81770433 -0.2578125 28.90429688 C-0.16109029 19.26960467 -0.07769288 9.63486447 0 0 Z " fill="#3B2BA1" transform="translate(236,579)"/>
<path d="M0 0 C7.26 0 14.52 0 22 0 C22 7.26 22 14.52 22 22 C27.61 22 33.22 22 39 22 C39 28.27 39 34.54 39 41 C33.39 41 27.78 41 22 41 C22.06894972 46.60549826 22.15695228 52.21025579 22.26245117 57.81518555 C22.29565962 59.72102631 22.32370425 61.62696446 22.34643555 63.53295898 C22.38005668 66.27630015 22.43237595 69.01875222 22.48828125 71.76171875 C22.49467117 72.61086349 22.5010611 73.46000824 22.50764465 74.33488464 C22.62187653 78.95428674 22.83744689 82.35201492 26 86 C28.95068845 86.55002534 31.24024106 86.78810849 34.1875 86.8125 C38.0546875 86.9053125 38.0546875 86.9053125 42 87 C42 93.27 42 99.54 42 106 C38.35370713 106.08156579 34.70927168 106.14077504 31.0625 106.1875 C30.04091797 106.21263672 29.01933594 106.23777344 27.96679688 106.26367188 C18.77791926 106.35174418 11.6987368 104.87650187 4.5078125 98.98828125 C-0.40188054 92.51410053 -0.4122459 85.48871586 -0.29296875 77.71875 C-0.28872391 76.66465942 -0.28447906 75.61056885 -0.28010559 74.52453613 C-0.26341405 71.18275595 -0.22577909 67.8415956 -0.1875 64.5 C-0.17244088 62.22396709 -0.15875463 59.94792465 -0.14648438 57.671875 C-0.11354165 52.11434725 -0.06182504 46.55727845 0 41 C-4.95 41 -9.9 41 -15 41 C-15 34.73 -15 28.46 -15 22 C-10.05 22 -5.1 22 0 22 C0 14.74 0 7.48 0 0 Z " fill="#5CB5F2" transform="translate(709,585)"/>
<path d="M0 0 C0.83025192 0.00652588 1.66050385 0.01305176 2.51591492 0.01977539 C3.39764877 0.01115982 4.27938263 0.00254425 5.18783569 -0.0063324 C8.10153074 -0.02902973 11.01426701 -0.02224703 13.92802429 -0.01318359 C15.95297024 -0.01841727 17.97791375 -0.02469281 20.00285339 -0.03196716 C24.246419 -0.04237816 28.48964942 -0.03779943 32.73320007 -0.02319336 C38.17443023 -0.00599907 43.61460508 -0.02950537 49.05571747 -0.06468296 C53.23703525 -0.08662996 57.41809943 -0.0852221 61.59945679 -0.07691765 C63.60574501 -0.07609676 65.61205161 -0.08298643 67.61828613 -0.09768867 C70.42206455 -0.11508601 73.22393258 -0.100633 76.02763367 -0.07788086 C76.85788559 -0.08957306 77.68813751 -0.10126526 78.54354858 -0.11331177 C80.86296082 -0.07496643 80.86296082 -0.07496643 84.77177429 0.55322266 C88.77177429 5.55322266 88.77177429 5.55322266 88.77177429 28.55322266 C56.10177429 28.55322266 23.43177429 28.55322266 -10.22822571 28.55322266 C-10.22822571 0.17003866 -10.22822571 0.17003866 0 0 Z " fill="#FAF9FA" transform="translate(306.2282257080078,309.44677734375)"/>
<path d="M0 0 C7.59 0 15.18 0 23 0 C23 27.72 23 55.44 23 84 C15.41 84 7.82 84 0 84 C0 56.28 0 28.56 0 0 Z " fill="#5FB6F2" transform="translate(580,607)"/>
<path d="M0 0 C5.76580604 3.24542376 9.86286437 8.11004618 11.8125 14.4375 C12.61402731 23.63642387 13.07522221 33.43506653 7.8125 41.4375 C3.3402132 46.71789803 -1.49099864 48.98512246 -8.41796875 49.65234375 C-14.92333751 49.92476288 -18.92872331 48.43362823 -23.875 44.0625 C-30.94992576 36.03150319 -30.82644763 27.63479269 -30.37109375 17.3984375 C-29.87189288 12.0665474 -27.26753743 8.75754575 -23.9375 4.6875 C-16.63454122 -1.2876481 -9.03098292 -3.97363248 0 0 Z " fill="#FBFAFB" transform="translate(423.1875,624.5625)"/>
<path d="M0 0 C2.81984369 1.81812302 4.48096094 3.53129564 6.19921875 6.41796875 C6.77671875 7.36671875 7.35421875 8.31546875 7.94921875 9.29296875 C10.92606959 16.80910594 10.25820106 26.5525244 7.57421875 34.04296875 C5.14697773 39.20621643 2.0837962 42.03454895 -3.09765625 44.51953125 C-9.39008896 46.61094675 -17.19735107 46.56422919 -23.30078125 43.85546875 C-29.23525259 40.31231392 -31.9978752 34.92102724 -33.80078125 28.41796875 C-34.78376452 19.10549569 -34.4038341 11.15699202 -28.80078125 3.41796875 C-20.69060007 -5.1306006 -9.84187006 -5.38062421 0 0 Z " fill="#FAF9FA" transform="translate(327.80078125,627.58203125)"/>
<path d="M0 0 C4.14366678 2.30918906 6.43514134 4.87229236 7.8125 9.4375 C8.63404442 15.3960578 8.30939446 20.37303216 4.8125 25.4375 C-0.41453981 30.15458471 -3.59764447 30.73335013 -10.4921875 30.65234375 C-15.26793168 30.27166849 -17.32440564 28.39649374 -20.4375 24.9375 C-23.81254158 20.11601203 -23.82758997 15.13607876 -23.1875 9.4375 C-18.49702346 0.05654692 -9.9745553 -4.35456332 0 0 Z " fill="#394F7A" transform="translate(501.1875,728.5625)"/>
<path d="M0 0 C4.61022155 2.18378916 6.75022527 4.48766773 9 9 C9.80983332 14.82934071 9.7949869 20.22656769 7.375 25.625 C3.06877911 29.93122089 -0.48906153 31.18466541 -6.5 31.4375 C-11.42081828 31.29041032 -14.29427431 30.42779626 -18 27 C-22.09365488 21.36508897 -21.76062732 15.71887469 -21 9 C-16.70793846 -0.21998406 -9.31032123 -1.13540503 0 0 Z " fill="#314875" transform="translate(352,728)"/>
<path d="M0 0 C2.31 0 4.62 0 7 0 C7.01981934 0.8878418 7.03963867 1.77568359 7.06005859 2.69042969 C7.13828232 5.99311334 7.22497885 9.29535064 7.31738281 12.59765625 C7.35560024 14.02530398 7.39046572 15.45304563 7.421875 16.88085938 C7.46768401 18.93653868 7.5256498 20.99157554 7.5859375 23.046875 C7.6173584 24.28276367 7.6487793 25.51865234 7.68115234 26.79199219 C7.97881277 29.78682982 8.33196569 31.52944185 10 34 C13.12706959 35.5635348 16.57982443 35.39958487 20 35 C23.24849977 33.27773504 23.24849977 33.27773504 24 30 C24.15145099 27.7174301 24.24886979 25.43112294 24.31640625 23.14453125 C24.33718735 22.48289474 24.35796844 21.82125824 24.37937927 21.13957214 C24.44464727 19.03065148 24.50365344 16.92160865 24.5625 14.8125 C24.60570689 13.38084685 24.64932188 11.94920596 24.69335938 10.51757812 C24.80030506 7.01184846 24.90163641 3.50598214 25 0 C27.31 0 29.62 0 32 0 C32.09932276 4.44736742 32.17168003 8.89413713 32.21972656 13.34228516 C32.23976791 14.85346736 32.26700905 16.36457272 32.30175781 17.87548828 C32.35061109 20.05520643 32.37304224 22.23389431 32.390625 24.4140625 C32.41157227 25.7232666 32.43251953 27.0324707 32.45410156 28.38134766 C31.79703298 33.61740706 29.05906992 37.64685528 25 41 C20.09386785 42.63537738 15.11968802 42.50113348 10 42 C6.4375 40.1875 6.4375 40.1875 4 38 C3.401875 37.484375 2.80375 36.96875 2.1875 36.4375 C-0.64945898 33.0032865 -0.12928195 28.901155 -0.09765625 24.70703125 C-0.0962413 24.00100266 -0.09482635 23.29497406 -0.09336853 22.56755066 C-0.08777764 20.31582374 -0.07522688 18.06419679 -0.0625 15.8125 C-0.05748382 14.28450665 -0.05292112 12.75651173 -0.04882812 11.22851562 C-0.0378112 7.48563865 -0.02055287 3.74283627 0 0 Z " fill="#334977" transform="translate(242,717)"/>
<path d="M0 0 C4.22479336 1.59426164 6.68320481 3.12792357 9 7 C9.34057617 9.74902344 9.34057617 9.74902344 9.29296875 12.859375 C9.28330078 13.97441406 9.27363281 15.08945312 9.26367188 16.23828125 C9.23853516 17.39714844 9.21339844 18.55601562 9.1875 19.75 C9.16719727 21.51150391 9.16719727 21.51150391 9.14648438 23.30859375 C9.1111478 26.20619298 9.06180979 29.10286427 9 32 C7.02 32 5.04 32 3 32 C3 31.01 3 30.02 3 29 C2.38125 29.495 1.7625 29.99 1.125 30.5 C-3.30061555 32.62429546 -7.17514065 32.8079908 -12 32 C-14.97597492 30.67930107 -15.85667145 29.650959 -18 27 C-18.72647707 22.93172842 -18.43856953 20.85807082 -16.5625 17.1875 C-11.0796689 12.50703443 -3.90559839 12.74888733 3 13 C1.88145414 9.27385847 1.88145414 9.27385847 -1 7 C-3.95804573 6.66659529 -3.95804573 6.66659529 -7 7 C-7.474375 7.495 -7.94875 7.99 -8.4375 8.5 C-10 10 -10 10 -13.6875 10.1875 C-14.780625 10.125625 -15.87375 10.06375 -17 10 C-15.64717831 5.57258356 -13.76701112 3.63690779 -10 1 C-6.80031426 -0.59984287 -3.48042073 -0.3629489 0 0 Z " fill="#314875" transform="translate(649,727)"/>
<path d="M0 0 C4.41027644 2.59623821 7.14935274 5.57336878 9.5078125 10.09375 C9.5078125 11.08375 9.5078125 12.07375 9.5078125 13.09375 C6.1953125 13.40625 6.1953125 13.40625 2.5078125 13.09375 C0.8203125 10.71875 0.8203125 10.71875 -0.4921875 8.09375 C-4.84109235 5.29665701 -9.49570239 5.42971146 -14.4921875 6.09375 C-18.13861365 8.22083192 -19.93136797 10.22563204 -21.4921875 14.09375 C-22.12196577 19.35166623 -22.65795897 25.10870527 -19.6796875 29.71875 C-17.34652283 32.25190021 -15.66551617 33.92272243 -12.1875 34.4296875 C-6.56579245 34.52410822 -6.56579245 34.52410822 -1.4921875 32.28125 C0.63927861 30.06127946 0.63927861 30.06127946 2.5078125 27.09375 C6.1328125 26.90625 6.1328125 26.90625 9.5078125 27.09375 C7.92772651 33.27044976 5.07882195 36.27523112 -0.0546875 39.90625 C-5.69725642 41.85550108 -11.89727335 42.24646704 -17.6484375 40.40234375 C-23.53196211 37.31865432 -27.43454668 32.33887039 -29.4921875 26.09375 C-30.36175702 18.94497317 -30.39827059 12.6667679 -25.9921875 6.74609375 C-19.09658157 -0.84984715 -10.0246989 -3.64534505 0 0 Z " fill="#334A77" transform="translate(615.4921875,717.90625)"/>
<path d="M0 0 C4.02605229 1.98298098 6.28663385 4.41385369 8.515625 8.265625 C9.14453125 10.33984375 9.14453125 10.33984375 9.14453125 17.33984375 C1.55453125 17.33984375 -6.03546875 17.33984375 -13.85546875 17.33984375 C-13.19546875 19.64984375 -12.53546875 21.95984375 -11.85546875 24.33984375 C-8.26282423 25.53739192 -5.62829401 25.67079333 -1.85546875 25.33984375 C-1.19546875 24.67984375 -0.53546875 24.01984375 0.14453125 23.33984375 C2.14453125 21.33984375 2.14453125 21.33984375 5.89453125 21.08984375 C6.96703125 21.17234375 8.03953125 21.25484375 9.14453125 21.33984375 C8.05142213 25.16572566 6.35722294 27.91660342 3.18359375 30.38671875 C-1.25896698 32.46331802 -6.10767729 32.04322026 -10.85546875 31.33984375 C-15.47201475 29.1530588 -17.58137769 26.84280247 -19.85546875 22.33984375 C-20.66499209 16.9867795 -20.76724334 11.26706299 -18.29296875 6.33984375 C-13.52186195 0.4677123 -7.6767092 -2.73129233 0 0 Z " fill="#4D6087" transform="translate(742.85546875,727.66015625)"/>
<path d="M0 0 C5.08643801 2.73885123 8.17004027 5.5101208 10 11 C10 13.31 10 15.62 10 18 C2.41 18 -5.18 18 -13 18 C-12.34 20.31 -11.68 22.62 -11 25 C-7.43528609 26.18823797 -4.7441664 26.26274852 -1 26 C-0.34 25.505 0.32 25.01 1 24.5 C3.9280281 22.30397893 6.45050599 22.7952215 10 23 C8.03595144 27.65169395 6.55704849 29.80538741 2 32 C-3.54808604 32.82885269 -8.47140883 32.7240695 -13.5625 30.3125 C-16.815782 27.22605297 -18.75372742 24.62850516 -19.43359375 20.1328125 C-19.44215309 13.54212158 -19.29295753 9.15154903 -15 4 C-10.31398941 0.59476454 -5.81801831 -0.86192864 0 0 Z " fill="#425780" transform="translate(707,727)"/>
<path d="M0 0 C3.95522111 2.08955078 6.62738482 4.22290572 9 8 C9.90955744 12.96569198 9.50377381 16.99245239 7.25 21.5 C4.57196373 24.47559586 2.6114168 25.71928418 -1.33203125 26.40625 C-6.19009264 26.58986177 -9.24081579 26.36960482 -13.0625 23.1875 C-16.32409083 20.0793958 -16.93958349 17.73708138 -17.3125 13.1875 C-17.24803379 8.80379803 -15.88627274 6.35431697 -13 3 C-9.05913462 -0.28405449 -4.98857772 -0.89011877 0 0 Z " fill="#5BB4F2" transform="translate(595,573)"/>
<path d="M0 0 C0.32822893 5.12401833 0.58411611 9.56626046 -1.375 14.375 C-6.62126731 19.62126731 -12.36622156 22.27862415 -19.8125 22.5 C-23.92166163 22.30238827 -26.79900231 21.77419799 -30 19 C-31.75229335 15.49541331 -31.67983902 11.81501895 -31 8 C-25.46420342 1.49543902 -18.35443427 1.04658806 -10.25 0.375 C-6.81263722 0.13878313 -3.4476658 0 0 0 Z " fill="#FAFBFB" transform="translate(816,653)"/>
<path d="M0 0 C1.98 0 3.96 0 6 0 C6.33 7.92 6.66 15.84 7 24 C8.485 22.185 9.97 20.37 11.5 18.5 C15.98076845 13.30446693 15.98076845 13.30446693 19.4453125 12.26953125 C21.625 12.3125 21.625 12.3125 25 13 C24.10635485 14.20995254 23.20994221 15.41786111 22.3125 16.625 C21.81363281 17.29789063 21.31476563 17.97078125 20.80078125 18.6640625 C18.60756458 21.5090594 16.31205898 24.25073736 14 27 C14.54527344 27.71917603 14.54527344 27.71917603 15.1015625 28.45288086 C16.73684931 30.61256012 18.36846695 32.77498378 20 34.9375 C20.57234375 35.69224609 21.1446875 36.44699219 21.734375 37.22460938 C22.27578125 37.94326172 22.8171875 38.66191406 23.375 39.40234375 C23.87773437 40.06741943 24.38046875 40.73249512 24.8984375 41.41772461 C26 43 26 43 26 44 C22.7689999 44.5769643 21.09401588 44.87199768 18 44 C14.83446638 41.00815052 12.45034968 37.58587758 10 34 C9.01 32.68 8.02 31.36 7 30 C6.67 34.62 6.34 39.24 6 44 C4.02 44 2.04 44 0 44 C0 29.48 0 14.96 0 0 Z " fill="#2B4170" transform="translate(402,715)"/>
<path d="M0 0 C3.24044458 2.56535196 4.69560167 4.086805 6 8 C6.08209792 9.77313851 6.10746294 11.54920775 6.09765625 13.32421875 C6.09443359 14.35224609 6.09121094 15.38027344 6.08789062 16.43945312 C6.07951172 17.51130859 6.07113281 18.58316406 6.0625 19.6875 C6.05798828 20.77095703 6.05347656 21.85441406 6.04882812 22.97070312 C6.03703743 25.64719085 6.02058063 28.32356777 6 31 C3.69 31 1.38 31 -1 31 C-1.01458252 30.34926514 -1.02916504 29.69853027 -1.04418945 29.02807617 C-1.11864549 26.08061694 -1.21531266 23.13429358 -1.3125 20.1875 C-1.33505859 19.16333984 -1.35761719 18.13917969 -1.38085938 17.08398438 C-1.4340332 15.60961914 -1.4340332 15.60961914 -1.48828125 14.10546875 C-1.51446533 13.19949951 -1.54064941 12.29353027 -1.56762695 11.36010742 C-2.07628516 8.58359759 -2.76260642 7.67374704 -5 6 C-7.45672892 5.33314062 -7.45672892 5.33314062 -10 6 C-13.37912853 9.01685597 -14.27717517 11.48454742 -14.609375 15.86328125 C-14.67540449 17.6790921 -14.72175307 19.49570859 -14.75 21.3125 C-14.77964844 22.24384766 -14.80929687 23.17519531 -14.83984375 24.13476562 C-14.91025904 26.42326265 -14.96309214 28.71075809 -15 31 C-16.98 31 -18.96 31 -21 31 C-21 20.77 -21 10.54 -21 0 C-19.02 0 -17.04 0 -15 0 C-14.67 0.66 -14.34 1.32 -14 2 C-13.0409375 1.2265625 -13.0409375 1.2265625 -12.0625 0.4375 C-7.81887431 -1.55440594 -4.45990487 -1.34120328 0 0 Z " fill="#374C78" transform="translate(304,728)"/>
<path d="M0 0 C2.31 0 4.62 0 7 0 C7.01981934 0.62044189 7.03963867 1.24088379 7.06005859 1.88012695 C7.15531845 4.69134537 7.26499302 7.50182166 7.375 10.3125 C7.4059375 11.28896484 7.436875 12.26542969 7.46875 13.27148438 C7.50742187 14.20927734 7.54609375 15.14707031 7.5859375 16.11328125 C7.6173584 16.97735596 7.6487793 17.84143066 7.68115234 18.73168945 C7.87188037 21.27742445 7.87188037 21.27742445 10 24 C13.45749949 24.66676878 13.45749949 24.66676878 17 24 C20.81470283 19.64414165 20.54399692 14.68571819 20.6875 9.1875 C20.72166016 8.30384766 20.75582031 7.42019531 20.79101562 6.50976562 C20.87310433 4.34027833 20.93823879 2.1701611 21 0 C22.98 0 24.96 0 27 0 C27 10.23 27 20.46 27 31 C25.02 31 23.04 31 21 31 C20.67 30.01 20.34 29.02 20 28 C19.525625 28.495 19.05125 28.99 18.5625 29.5 C14.77161248 31.71905611 11.29150498 31.69736956 7 31 C3.39702615 28.85354749 1.54821646 26.85299641 0 23 C-0.22705078 20.43457031 -0.22705078 20.43457031 -0.1953125 17.578125 C-0.18564453 16.04091797 -0.18564453 16.04091797 -0.17578125 14.47265625 C-0.15902344 13.40917969 -0.14226563 12.34570312 -0.125 11.25 C-0.11597656 10.17105469 -0.10695313 9.09210937 -0.09765625 7.98046875 C-0.07411305 5.32008722 -0.04122799 2.66015664 0 0 Z " fill="#314975" transform="translate(514,728)"/>
<path d="M0 0 C5.05604321 -0.73463876 5.05604321 -0.73463876 8 0 C10.48265895 2.47658888 11.92755761 5.38972873 13.5 8.5 C13.94085938 9.31082031 14.38171875 10.12164063 14.8359375 10.95703125 C15.91898833 12.95832082 16.9712389 14.97041946 18 17 C18.29656494 16.48501953 18.59312988 15.97003906 18.89868164 15.43945312 C20.26038576 13.1097716 21.66044451 10.80560236 23.0625 8.5 C23.52849609 7.68917969 23.99449219 6.87835937 24.47460938 6.04296875 C25.85994002 3.80005247 27.12583619 1.85653132 29 0 C32.87109375 -0.53125 32.87109375 -0.53125 36 0 C34.91813525 3.30389834 33.42167053 5.94131204 31.43359375 8.7578125 C23.68617655 19.91810387 21.35437811 28.45695472 22 42 C19.69 42 17.38 42 15 42 C15.09023438 40.96746094 15.18046875 39.93492187 15.2734375 38.87109375 C15.83848534 24.32322026 9.31776071 14.64475878 1.26928711 2.93920898 C0 1 0 1 0 0 Z " fill="#354C78" transform="translate(443,717)"/>
<path d="M0 0 C3.79867987 2.40236147 4.81964794 5.25348193 6.1875 9.4375 C2.875 9.6875 2.875 9.6875 -0.8125 9.4375 C-1.286875 8.7775 -1.76125 8.1175 -2.25 7.4375 C-3.59348124 5.2798734 -3.59348124 5.2798734 -5.66015625 5.03125 C-8.77152956 4.88777682 -8.77152956 4.88777682 -11.8125 5.4375 C-13.93117515 7.54658839 -14.72737896 8.91675949 -15.2109375 11.875 C-15.20320313 12.720625 -15.19546875 13.56625 -15.1875 14.4375 C-15.19523437 15.283125 -15.20296875 16.12875 -15.2109375 17 C-14.72737896 19.95824051 -13.93117515 21.32841161 -11.8125 23.4375 C-9.09735816 24.18197438 -6.55627167 24.04078172 -3.8125 23.4375 C-2.7864266 22.12412604 -1.78522675 20.79085895 -0.8125 19.4375 C2.875 19.1875 2.875 19.1875 6.1875 19.4375 C4.94642597 24.40179611 3.42643588 26.57621828 -0.8125 29.4375 C-4.52231281 31.29240641 -8.76373393 30.8915091 -12.8125 30.4375 C-17.94558791 27.82429161 -20.9922908 24.89812759 -22.8125 19.4375 C-23.60295237 13.08000454 -23.08705606 8.32711555 -19.29296875 3.06640625 C-14.16252505 -2.5784355 -6.62974738 -3.24493965 0 0 Z " fill="#364B78" transform="translate(388.8125,728.5625)"/>
<path d="M0 0 C0.4770639 0.42378937 0.95412781 0.84757874 1.44564819 1.28421021 C10.40527462 7.95931719 20.44700744 6.85745551 31.1015625 6.8046875 C33.14994869 6.81594974 35.19832198 6.82983564 37.24667358 6.84622192 C42.60939226 6.88213623 47.97153938 6.88264907 53.33435059 6.87554932 C58.81805532 6.87463391 64.30154872 6.9075305 69.78515625 6.9375 C80.52356519 6.99124641 91.26145732 7.00442931 102 7 C102 14.26 102 21.52 102 29 C90.169618 29.04511969 78.33929281 29.08184038 66.50884438 29.10362434 C61.01595497 29.11407763 55.5231273 29.12826493 50.03027344 29.15087891 C44.73294846 29.1725523 39.43568299 29.18455698 34.13831711 29.18975449 C32.11363157 29.19346016 30.08894941 29.20069604 28.06428909 29.21146011 C25.23630898 29.22590194 22.40857724 29.22798102 19.58056641 29.22705078 C18.73683975 29.23424133 17.8931131 29.24143188 17.02381897 29.24884033 C11.22810432 29.22810432 11.22810432 29.22810432 9 27 C39.03 27 69.06 27 100 27 C100 20.73 100 14.46 100 8 C95.92785156 8.03927612 95.92785156 8.03927612 91.7734375 8.0793457 C82.78896389 8.16231305 73.80447305 8.21747097 64.81971741 8.25906086 C59.37390831 8.28511885 53.92849277 8.32044795 48.48291016 8.37719727 C43.22442778 8.43165184 37.96632321 8.4614491 32.70758057 8.47438622 C30.70454972 8.48360192 28.7015388 8.50159826 26.69866943 8.52865028 C23.88590332 8.56511933 21.07468446 8.5699379 18.26171875 8.56762695 C17.02848625 8.59459152 17.02848625 8.59459152 15.77033997 8.62210083 C9.87025721 8.56988771 5.4464941 6.99284407 1 3 C0.67 2.01 0.34 1.02 0 0 Z " fill="#201194" transform="translate(199,426)"/>
<path d="M0 0 C2.31 0 4.62 0 7 0 C7 14.52 7 29.04 7 44 C4.69 44 2.38 44 0 44 C0 29.48 0 14.96 0 0 Z " fill="#3B517D" transform="translate(317,715)"/>
<path d="M0 0 C4.23295677 0.43047018 5.72110375 1.40860375 8.6875 4.375 C10.29989752 7.59979505 10.13505657 10.87886968 9.6875 14.375 C8.1875 17.8125 8.1875 17.8125 5.6875 20.375 C2.95082496 21.44338879 0.60289798 21.73364023 -2.3125 21.375 C-5.79381633 19.30102432 -7.02736282 18.23041154 -8.3125 14.375 C-8.68538316 9.34107729 -8.34302983 6.45455939 -5.3125 2.375 C-3.3125 0.375 -3.3125 0.375 0 0 Z " fill="#F6F7F8" transform="translate(345.3125,732.625)"/>
<path d="M0 0 C2.9375 1.875 2.9375 1.875 5 5 C5.92792784 9.9652279 5.78147829 13.72358547 3.125 18.0625 C0.62875871 20.33848471 -0.47398089 20.91817481 -3.8125 21.4375 C-7 21 -7 21 -9.875 18.625 C-12.48271206 15.0605624 -12.72204287 11.67640328 -12.48046875 7.34765625 C-12 5 -12 5 -9.9375 1.875 C-6.21389337 -0.50177019 -4.34189423 -0.77533825 0 0 Z " fill="#F9F9FA" transform="translate(497,733)"/>
<path d="M0 0 C1.32 0.33 2.64 0.66 4 1 C3.67 1.66 3.34 2.32 3 3 C3.99 2.67 4.98 2.34 6 2 C8.06145107 1.931009 10.12501401 1.91532273 12.1875 1.9375 C13.81751953 1.95103516 13.81751953 1.95103516 15.48046875 1.96484375 C16.31191406 1.97644531 17.14335938 1.98804688 18 2 C18.25 7.625 18.25 7.625 16 11 C16 11.99 16 12.98 16 14 C13.18335644 16.75174394 11.01736244 17.45149704 7.125 17.5 C3.62389031 17.3808794 1.23793951 17.00290636 -1.625 14.9375 C-4 12 -4 12 -4.625 8.5 C-3.9226872 4.56704829 -2.75091768 2.83688385 0 0 Z " fill="#324976" transform="translate(635,742)"/>
<path d="M0 0 C0 2.31 0 4.62 0 7 C-0.62648438 7.09796875 -1.25296875 7.1959375 -1.8984375 7.296875 C-2.71570313 7.44640625 -3.53296875 7.5959375 -4.375 7.75 C-5.18710937 7.88921875 -5.99921875 8.0284375 -6.8359375 8.171875 C-9.11954653 8.79721053 -9.11954653 8.79721053 -10.109375 10.76757812 C-11.06307495 13.15810234 -11.31011936 14.98294427 -11.4140625 17.546875 C-11.45273437 18.39121094 -11.49140625 19.23554687 -11.53125 20.10546875 C-11.57765625 21.41451172 -11.57765625 21.41451172 -11.625 22.75 C-11.66367187 23.63816406 -11.70234375 24.52632812 -11.7421875 25.44140625 C-11.83620873 27.6273998 -11.92186143 29.81339062 -12 32 C-13.98 32 -15.96 32 -18 32 C-18 21.77 -18 11.54 -18 1 C-16.02 1 -14.04 1 -12 1 C-11.67 1.99 -11.34 2.98 -11 4 C-10.29875 3.34 -9.5975 2.68 -8.875 2 C-5.56539771 -0.30233203 -3.93774177 -0.36630156 0 0 Z " fill="#304774" transform="translate(568,727)"/>
<path d="M0 0 C0 2.31 0 4.62 0 7 C-1.98567708 7.09765625 -3.97135417 7.1953125 -5.95703125 7.29296875 C-8.1688191 7.87163689 -8.1688191 7.87163689 -9.71875 9.9375 C-11.51073517 14.22078163 -11.56738709 18.21045982 -11.6875 22.8125 C-11.72166016 23.69615234 -11.75582031 24.57980469 -11.79101562 25.49023438 C-11.87310433 27.65972167 -11.93823879 29.8298389 -12 32 C-13.98 32 -15.96 32 -18 32 C-18 21.77 -18 11.54 -18 1 C-16.02 1 -14.04 1 -12 1 C-11.67 1.66 -11.34 2.32 -11 3 C-9.9275 2.505 -8.855 2.01 -7.75 1.5 C-4.74583192 0.11346089 -3.54065105 0 0 0 Z " fill="#324976" transform="translate(685,727)"/>
<path d="M0 0 C0 2.31 0 4.62 0 7 C-1.093125 7.061875 -2.18625 7.12375 -3.3125 7.1875 C-7.00486516 7.61758178 -7.00486516 7.61758178 -8.6875 9.9375 C-10.52252843 14.21923301 -10.56704345 18.1972935 -10.6875 22.8125 C-10.72166016 23.69615234 -10.75582031 24.57980469 -10.79101562 25.49023438 C-10.87310433 27.65972167 -10.93823879 29.8298389 -11 32 C-12.98 32 -14.96 32 -17 32 C-17 21.77 -17 11.54 -17 1 C-15.02 1 -13.04 1 -11 1 C-10.67 1.66 -10.34 2.32 -10 3 C-9.278125 2.505 -8.55625 2.01 -7.8125 1.5 C-4.85151341 -0.07919285 -3.28746971 -0.28178312 0 0 Z " fill="#374E79" transform="translate(777,727)"/>
<path d="M0 0 C1.27932907 0.48513565 1.27932907 0.48513565 2.58450317 0.98007202 C6.11788637 2.03520296 8.9700992 2.27591555 12.64794922 2.31884766 C14.59929276 2.34865219 14.59929276 2.34865219 16.59005737 2.37905884 C17.99493236 2.3909326 19.39980914 2.40259561 20.8046875 2.4140625 C22.25343918 2.43278925 23.70218012 2.45236378 25.15090942 2.4727478 C28.94838105 2.52391603 32.74588798 2.5636232 36.54351807 2.60089111 C40.4249331 2.64102721 44.30620322 2.69207556 48.1875 2.7421875 C55.79157444 2.8387654 63.39570581 2.92221803 71 3 C71 10.26 71 17.52 71 25 C50.21 25 29.42 25 8 25 C8 24.67 8 24.34 8 24 C28.13 24 48.26 24 69 24 C69 17.73 69 11.46 69 5 C67.19402344 5.02094727 65.38804687 5.04189453 63.52734375 5.06347656 C57.53636296 5.12817899 51.54548175 5.17402995 45.55426025 5.20724869 C41.92448269 5.22805515 38.29508585 5.25624354 34.66552734 5.30175781 C31.15768737 5.34546659 27.6502118 5.36918921 24.14212036 5.37950897 C22.16355356 5.39041254 20.18513179 5.42159835 18.20678711 5.45318604 C10.97566292 5.4549758 6.15202306 4.89897952 0 1 C0 0.67 0 0.34 0 0 Z " fill="#291B9A" transform="translate(201,537)"/>
<path d="M0 0 C1.98 0 3.96 0 6 0 C6 10.23 6 20.46 6 31 C4.02 31 2.04 31 0 31 C-0.33 30.01 -0.66 29.02 -1 28 C-1.515625 28.495 -2.03125 28.99 -2.5625 29.5 C-5.80680017 31.49649241 -8.26217334 31.21564385 -12 31 C-12 30.67 -12 30.34 -12 30 C-8.04 29.505 -8.04 29.505 -4 29 C-3.87625 28.46375 -3.7525 27.9275 -3.625 27.375 C-3 25 -3 25 -2 22.46875 C-0.71171718 18.00001898 -0.54228092 13.75310547 -0.375 9.125 C-0.33632813 8.24585938 -0.29765625 7.36671875 -0.2578125 6.4609375 C-0.16418966 4.30761207 -0.08103541 2.15383586 0 0 Z " fill="#2F4572" transform="translate(535,728)"/>
<path d="M0 0 C5.08643801 2.73885123 8.17004027 5.5101208 10 11 C10 13.31 10 15.62 10 18 C2.41 18 -5.18 18 -13 18 C-13 17.67 -13 17.34 -13 17 C-6.565 16.505 -6.565 16.505 0 16 C-4.29 15.67 -8.58 15.34 -13 15 C-13 14.67 -13 14.34 -13 14 C-7.39 14 -1.78 14 4 14 C1.83333333 8.16666667 1.83333333 8.16666667 -1 7 C-2.54023996 6.93049459 -4.08334988 6.91547643 -5.625 6.9375 C-6.44226563 6.94652344 -7.25953125 6.95554687 -8.1015625 6.96484375 C-8.72804688 6.97644531 -9.35453125 6.98804688 -10 7 C-9.67 6.34 -9.34 5.68 -9 5 C-12.35595828 5.59927826 -14.37801226 6.84622436 -17 9 C-16.38409328 6.22841977 -15.65492602 4.48007458 -13.33203125 2.77734375 C-8.83411508 0.35003503 -5.17382206 -0.76649216 0 0 Z " fill="#3A507B" transform="translate(707,727)"/>
<path d="M0 0 C3.95649228 2.03642985 6.45181013 4.12561907 8.109375 8.26953125 C7.796875 10.58203125 7.796875 10.58203125 7.109375 12.26953125 C6.449375 11.27953125 5.789375 10.28953125 5.109375 9.26953125 C4.779375 9.92953125 4.449375 10.58953125 4.109375 11.26953125 C3.449375 11.26953125 2.789375 11.26953125 2.109375 11.26953125 C1.820625 10.63015625 1.531875 9.99078125 1.234375 9.33203125 C0.28114049 7.11747046 0.28114049 7.11747046 -1.890625 6.26953125 C-6.55126637 5.78759203 -6.55126637 5.78759203 -10.703125 7.51953125 C-12.15151068 9.57102974 -12.15151068 9.57102974 -13.890625 13.26953125 C-8.610625 13.26953125 -3.330625 13.26953125 2.109375 13.26953125 C2.109375 13.59953125 2.109375 13.92953125 2.109375 14.26953125 C-3.500625 14.26953125 -9.110625 14.26953125 -14.890625 14.26953125 C-15.220625 13.60953125 -15.550625 12.94953125 -15.890625 12.26953125 C-16.880625 12.76453125 -16.880625 12.76453125 -17.890625 13.26953125 C-18.29791728 15.59109722 -18.63501177 17.92640995 -18.890625 20.26953125 C-19.220625 20.26953125 -19.550625 20.26953125 -19.890625 20.26953125 C-20.39152832 13.35428264 -20.23219942 8.8356523 -15.890625 3.26953125 C-11.17724985 -0.6621703 -5.98497487 -2.31237666 0 0 Z " fill="#2B4372" transform="translate(742.890625,727.73046875)"/>
<path d="M0 0 C7.26 0 14.52 0 22 0 C21.67 20.79 21.34 41.58 21 63 C20.67 63 20.34 63 20 63 C20 43.2 20 23.4 20 3 C13.73 3 7.46 3 1 3 C1 24.78 1 46.56 1 69 C0.67 69 0.34 69 0 69 C0 46.23 0 23.46 0 0 Z " fill="#4434A6" transform="translate(237,579)"/>
<path d="M0 0 C0.33 0.99 0.66 1.98 1 3 C-6.59 3 -14.18 3 -22 3 C-21.34 5.31 -20.68 7.62 -20 10 C-16.40735548 11.19754817 -13.77282526 11.33094958 -10 11 C-9.34 10.34 -8.68 9.68 -8 9 C-6 7 -6 7 -2.25 6.75 C-1.1775 6.8325 -0.105 6.915 1 7 C-0.09310912 10.82588191 -1.78730831 13.57675967 -4.9609375 16.046875 C-9.39863244 18.12119984 -14.25765968 17.71459923 -19 17 C-22.769887 15.51226682 -24.74262867 13.386057 -27 10 C-26.67 9.01 -26.34 8.02 -26 7 C-25.01 8.485 -25.01 8.485 -24 10 C-22.5527864 7.47825081 -22.5527864 7.47825081 -23 2 C-15.41 2 -7.82 2 0 2 C0 1.34 0 0.68 0 0 Z " fill="#29416F" transform="translate(751,742)"/>
<path d="M0 0 C15.84 0 31.68 0 48 0 C44.88692064 2.07538624 44.23651805 2.24772151 40.7121582 2.22705078 C39.42115959 2.22682419 39.42115959 2.22682419 38.1040802 2.22659302 C37.17899155 2.21627045 36.25390289 2.20594788 35.30078125 2.1953125 C34.35059616 2.1924826 33.40041107 2.18965271 32.4214325 2.18673706 C29.38499385 2.17553715 26.34884958 2.15043288 23.3125 2.125 C21.25456155 2.11496996 19.19661848 2.10584415 17.13867188 2.09765625 C12.09224311 2.07729954 7.04645128 2.03815041 2 2 C2 8.27 2 14.54 2 21 C16.52 21 31.04 21 46 21 C46 21.33 46 21.66 46 22 C30.82 22 15.64 22 0 22 C0 14.74 0 7.48 0 0 Z " fill="#2C1F9B" transform="translate(436,540)"/>
<path d="M0 0 C1.32 0 2.64 0 4 0 C4 7.92 4 15.84 4 24 C4.66 24.33 5.32 24.66 6 25 C5.67 25.33 5.34 25.66 5 26 C4.76346477 28.52596259 4.57826308 31.03107207 4.4375 33.5625 C4.39431641 34.27341797 4.35113281 34.98433594 4.30664062 35.71679688 C4.20028223 37.47761912 4.09961154 39.2387832 4 41 C2.68 41 1.36 41 0 41 C0 27.47 0 13.94 0 0 Z " fill="#435881" transform="translate(403,716)"/>
<path d="M0 0 C0.66 0 1.32 0 2 0 C3.00005304 3.00015912 3.11575585 4.97423756 3.09765625 8.10546875 C3.09443359 9.08837891 3.09121094 10.07128906 3.08789062 11.08398438 C3.07951172 12.10814453 3.07113281 13.13230469 3.0625 14.1875 C3.05798828 15.22326172 3.05347656 16.25902344 3.04882812 17.32617188 C3.0370401 19.88417266 3.02058515 22.44205733 3 25 C1.35 25 -0.3 25 -2 25 C-3.125 22.1875 -3.125 22.1875 -4 19 C-3.34 18.01 -2.68 17.02 -2 16 C-1.67 14.02 -1.34 12.04 -1 10 C-5.95 10.33 -10.9 10.66 -16 11 C-16.33 9.68 -16.66 8.36 -17 7 C-11.61509359 6.08342019 -6.45769811 5.88861841 -1 6 C-0.67 4.02 -0.34 2.04 0 0 Z " fill="#445981" transform="translate(654,734)"/>
<path d="M0 0 C1.1446875 0.3403125 1.1446875 0.3403125 2.3125 0.6875 C2.3125 1.3475 2.3125 2.0075 2.3125 2.6875 C3.01375 2.460625 3.715 2.23375 4.4375 2 C8.34549081 1.57521839 10.07489828 2.50563797 13.3125 4.6875 C16.03370171 8.76930257 16.65989006 11.82403911 16.3125 16.6875 C14.99781648 14.15926247 13.88913535 11.64672857 12.8125 9 C11.70083467 5.619041 11.70083467 5.619041 9.3125 4.6875 C5.63920036 4.55392547 2.81397041 4.5203432 -0.6875 5.6875 C-1.69009507 8.69528521 -1.99064642 11.22570647 -2.25 14.375 C-2.33378906 15.36886719 -2.41757812 16.36273437 -2.50390625 17.38671875 C-2.56449219 18.14597656 -2.62507813 18.90523437 -2.6875 19.6875 C-4.8394437 16.45958445 -4.88836443 15.40349191 -4.6875 11.6875 C-5.3475 11.6875 -6.0075 11.6875 -6.6875 11.6875 C-6.7147415 13.10405793 -6.73400467 14.52077045 -6.75 15.9375 C-6.76160156 16.72640625 -6.77320313 17.5153125 -6.78515625 18.328125 C-6.69135306 20.59441002 -6.31991063 22.5163895 -5.6875 24.6875 C-8.46639489 22.15024815 -9.52418864 20.24297376 -9.92578125 16.41796875 C-10.09588422 10.58970395 -9.62063515 7.29488688 -5.6875 2.6875 C-5.213125 2.048125 -4.73875 1.40875 -4.25 0.75 C-2.6875 -0.3125 -2.6875 -0.3125 0 0 Z " fill="#304774" transform="translate(487.6875,729.3125)"/>
<path d="M0 0 C0.598125 0.825 1.19625 1.65 1.8125 2.5 C2.8953125 3.7375 2.8953125 3.7375 4 5 C6.67226063 5 9.27431627 4.89174417 11.9375 4.6875 C12.79214844 4.62949219 13.64679687 4.57148437 14.52734375 4.51171875 C17.37570465 3.92224754 18.71941254 2.74643765 21 1 C24.75 0.8125 24.75 0.8125 28 1 C26.03595144 5.65169395 24.55704849 7.80538741 20 10 C14.76134547 10.78262537 8.98057534 11.14416565 4.375 8.1875 C2 6 2 6 0 3 C0 2.01 0 1.02 0 0 Z " fill="#304674" transform="translate(689,749)"/>
<path d="M0 0 C2.97 0.495 2.97 0.495 6 1 C5.01 1.33 4.02 1.66 3 2 C2.88372497 5.58305992 2.8127264 9.16563417 2.75 12.75 C2.69972656 14.27367187 2.69972656 14.27367187 2.6484375 15.828125 C2.45535942 21.62794923 2.45535942 21.62794923 4.890625 26.703125 C6.87126566 28.17458177 6.87126566 28.17458177 9 28 C9 27.34 9 26.68 9 26 C12.30753495 24.89748835 15.64566891 23.94933899 19 23 C18.34 24.98 17.68 26.96 17 29 C8.05396701 31.5708988 8.05396701 31.5708988 4 29.375 C0.67775448 25.42983344 -0.25270422 22.74338025 -0.1953125 17.578125 C-0.18564453 16.04091797 -0.18564453 16.04091797 -0.17578125 14.47265625 C-0.15902344 13.40917969 -0.14226563 12.34570312 -0.125 11.25 C-0.11597656 10.17105469 -0.10695313 9.09210937 -0.09765625 7.98046875 C-0.07411305 5.32008722 -0.04122799 2.66015664 0 0 Z " fill="#405680" transform="translate(514,728)"/>
<path d="M0 0 C0.99 0 1.98 0 3 0 C3 13.53 3 27.06 3 41 C2.01 41 1.02 41 0 41 C0 27.47 0 13.94 0 0 Z " fill="#415680" transform="translate(319,716)"/>
<path d="M0 0 C2.37760911 1.76403256 3.83898829 3.11936451 4.3828125 6.09375 C4.50315568 7.66344366 4.61506144 9.23380578 4.71875 10.8046875 C5.09104771 13.71067796 6.27111552 15.66976439 8 18 C7.01 18.99 6.02 19.98 5 21 C-1.60869565 17.17391304 -1.60869565 17.17391304 -3 13 C-3.14220279 11.33732126 -3.22020567 9.6684827 -3.25 8 C-3.27578125 7.13375 -3.3015625 6.2675 -3.328125 5.375 C-2.94072585 2.57096806 -2.17141522 1.73713218 0 0 Z " fill="#3C517D" transform="translate(369,735)"/>
<path d="M0 0 C0.89203125 0.01804687 1.7840625 0.03609375 2.703125 0.0546875 C3.71632813 0.08949219 3.71632813 0.08949219 4.75 0.125 C4.27 5.525 4.27 5.525 2.125 8 C-1.11740173 9.5358745 -3.70749583 9.38740772 -7.25 9.125 C-7.91 8.795 -8.57 8.465 -9.25 8.125 C-9.25 6.145 -9.25 4.165 -9.25 2.125 C-6.03817851 0.21891902 -3.71117397 -0.09766247 0 0 Z " fill="#EFF1F4" transform="translate(647.25,744.875)"/>
<path d="M0 0 C3.875 2.625 3.875 2.625 5 6 C5.08209792 7.77313851 5.10746294 9.54920775 5.09765625 11.32421875 C5.09443359 12.35224609 5.09121094 13.38027344 5.08789062 14.43945312 C5.07951172 15.51130859 5.07113281 16.58316406 5.0625 17.6875 C5.05798828 18.77095703 5.05347656 19.85441406 5.04882812 20.97070312 C5.03703743 23.64719085 5.02058063 26.32356777 5 29 C2.69 29 0.38 29 -2 29 C-2.33 21.08 -2.66 13.16 -3 5 C-1 6 -1 6 -0.38110352 7.80566406 C-0.00673442 9.96122424 0.11421297 11.92388806 0.09765625 14.109375 C0.09443359 14.86347656 0.09121094 15.61757813 0.08789062 16.39453125 C0.07951172 17.17183594 0.07113281 17.94914063 0.0625 18.75 C0.05798828 19.54277344 0.05347656 20.33554687 0.04882812 21.15234375 C0.03708565 23.10159508 0.01915146 25.05080738 0 27 C0.99 27 1.98 27 3 27 C2.88970353 23.43688596 2.75917283 19.87478855 2.625 16.3125 C2.5940625 15.30509766 2.563125 14.29769531 2.53125 13.25976562 C2.49257813 12.28330078 2.45390625 11.30683594 2.4140625 10.30078125 C2.3826416 9.40528564 2.3512207 8.50979004 2.31884766 7.5871582 C1.97338887 4.78407493 1.15318532 2.56735469 0 0 Z " fill="#314876" transform="translate(305,730)"/>
<path d="M0 0 C2.5 2.875 2.5 2.875 4 6 C3.25 8.875 3.25 8.875 2 11 C1.34 11 0.68 11 0 11 C0 12.65 0 14.3 0 16 C-0.33 16 -0.66 16 -1 16 C-1 13.36 -1 10.72 -1 8 C-1.66 8 -2.32 8 -3 8 C-4.33203125 6.5390625 -4.33203125 6.5390625 -5.8125 4.625 C-8.27726291 1.62731537 -10.15045162 0.0189981 -14 -1 C-14 -1.33 -14 -1.66 -14 -2 C-8.28286103 -3.08428498 -4.9828939 -3.51067525 0 0 Z " fill="#3A507B" transform="translate(357,731)"/>
<path d="M0 0 C3.74541979 1.42755754 6.47325812 3.34157265 9 6.5 C10.09578609 9.23946523 10.09659065 10.30836841 9 13 C8.34 12.01 7.68 11.02 7 10 C6.67 10.66 6.34 11.32 6 12 C5.34 12 4.68 12 4 12 C3.649375 11.030625 3.29875 10.06125 2.9375 9.0625 C2.298125 8.051875 1.65875 7.04125 1 6 C-2.43407381 5.16417032 -2.43407381 5.16417032 -6 5 C-8.4375 3.9375 -8.4375 3.9375 -10 3 C-7.27753744 -0.84347655 -4.43220603 -0.5170907 0 0 Z " fill="#3F547F" transform="translate(741,727)"/>
<path d="M0 0 C2.4375 1.8125 2.4375 1.8125 4 4 C4 4.99 4 5.98 4 7 C-1.28 7 -6.56 7 -12 7 C-8.39829707 -0.20340587 -7.68623039 -0.66260607 0 0 Z " fill="#F8F9FA" transform="translate(741,733)"/>
<path d="M0 0 C3.625 0.375 3.625 0.375 6 2.1875 C7.625 4.375 7.625 4.375 8.625 7.375 C3.015 7.375 -2.595 7.375 -8.375 7.375 C-4.23214286 0.4702381 -4.23214286 0.4702381 0 0 Z " fill="#F9F9FA" transform="translate(702.375,732.625)"/>
<path d="M0 0 C0 2.31 0 4.62 0 7 C-1.093125 7.061875 -2.18625 7.12375 -3.3125 7.1875 C-7.00486516 7.61758178 -7.00486516 7.61758178 -8.6875 9.9375 C-10.52252843 14.21923301 -10.56704345 18.1972935 -10.6875 22.8125 C-10.72166016 23.69615234 -10.75582031 24.57980469 -10.79101562 25.49023438 C-10.87310433 27.65972167 -10.93823879 29.8298389 -11 32 C-11.33 32 -11.66 32 -12 32 C-12.08774066 28.79184155 -12.14063706 25.58399538 -12.1875 22.375 C-12.21263672 21.47136719 -12.23777344 20.56773437 -12.26367188 19.63671875 C-12.32343224 14.1786056 -11.72511232 10.85293976 -9 6 C-9.33 5.01 -9.66 4.02 -10 3 C-6.48812804 0.59185923 -4.27343092 -0.36629408 0 0 Z " fill="#2A406E" transform="translate(777,727)"/>
<path d="M0 0 C3.625 -0.1875 3.625 -0.1875 7 0 C5.56333341 5.02833307 3.25011637 7.16658908 -1 10 C-3.875 9.8125 -3.875 9.8125 -6 9 C-6 8.34 -6 7.68 -6 7 C-7.65 6.67 -9.3 6.34 -11 6 C-11 5.67 -11 5.34 -11 5 C-10.37351562 4.89042969 -9.74703125 4.78085937 -9.1015625 4.66796875 C-7.87566406 4.43013672 -7.87566406 4.43013672 -6.625 4.1875 C-5.81289063 4.03667969 -5.00078125 3.88585937 -4.1640625 3.73046875 C-1.64179359 3.12455058 -1.64179359 3.12455058 0 0 Z " fill="#394E79" transform="translate(745,749)"/>
<path d="M0 0 C0.33 0.99 0.66 1.98 1 3 C1.66 3 2.32 3 3 3 C3.2475 4.051875 3.495 5.10375 3.75 6.1875 C4.76664535 9.84152967 6.61481203 12.05826817 9 15 C9 16.32 9 17.64 9 19 C5.19804378 18.4568634 3.49869657 16.84334437 1 14 C-0.38226016 11.23547967 -0.09525387 8.9538637 -0.0625 5.875 C-0.05347656 4.77929688 -0.04445313 3.68359375 -0.03515625 2.5546875 C-0.02355469 1.71164062 -0.01195312 0.86859375 0 0 Z " fill="#415680" transform="translate(480,738)"/>
<path d="M0 0 C0.99 0 1.98 0 3 0 C3 9.57 3 19.14 3 29 C2.67 29 2.34 29 2 29 C1.67 27.02 1.34 25.04 1 23 C0.67 23 0.34 23 0 23 C0 15.41 0 7.82 0 0 Z " fill="#E0E2E8" transform="translate(239,717)"/>
<path d="M0 0 C4.95 1.98 4.95 1.98 10 4 C10 4.33 10 4.66 10 5 C9.36191406 5.12117187 8.72382812 5.24234375 8.06640625 5.3671875 C7.24011719 5.53476562 6.41382813 5.70234375 5.5625 5.875 C4.73878906 6.03742187 3.91507813 6.19984375 3.06640625 6.3671875 C2.38449219 6.57601562 1.70257812 6.78484375 1 7 C0.67 7.66 0.34 8.32 0 9 C-2.31 9 -4.62 9 -7 9 C-5.64978174 4.58110387 -3.73884332 2.65654657 0 0 Z " fill="#394F7A" transform="translate(639,728)"/>
<path d="M0 0 C0.33 0.99 0.66 1.98 1 3 C6.94 3 12.88 3 19 3 C19 3.33 19 3.66 19 4 C13.06 4.33 7.12 4.66 1 5 C1.33 7.31 1.66 9.62 2 12 C1.01 13.485 1.01 13.485 0 15 C-2.0625 13.5625 -2.0625 13.5625 -4 11 C-4.21015873 7.88633253 -3.95882129 4.97406844 -3 2 C-2.01 1.34 -1.02 0.68 0 0 Z " fill="#435780" transform="translate(727,739)"/>
<path d="M0 0 C0.33 0.99 0.66 1.98 1 3 C1.66 3 2.32 3 3 3 C3 4.32 3 5.64 3 7 C-4.59 7 -12.18 7 -20 7 C-20 6.67 -20 6.34 -20 6 C-13.565 5.505 -13.565 5.505 -7 5 C-11.29 4.67 -15.58 4.34 -20 4 C-20 3.67 -20 3.34 -20 3 C-18.72382812 2.95101562 -17.44765625 2.90203125 -16.1328125 2.8515625 C-14.46351928 2.77653809 -12.79424954 2.70099012 -11.125 2.625 C-10.28324219 2.5940625 -9.44148437 2.563125 -8.57421875 2.53125 C-7.76855469 2.49257813 -6.96289062 2.45390625 -6.1328125 2.4140625 C-5.38918457 2.3826416 -4.64555664 2.3512207 -3.87939453 2.31884766 C-1.75989026 2.14580449 -1.75989026 2.14580449 0 0 Z " fill="#243C6D" transform="translate(714,738)"/>
<path d="M0 0 C1.4540625 0.0309375 1.4540625 0.0309375 2.9375 0.0625 C1.6175 1.0525 0.2975 2.0425 -1.0625 3.0625 C0.9175 3.0625 2.8975 3.0625 4.9375 3.0625 C2.9375 5.0625 2.9375 5.0625 0.5 6.5 C-1.73718856 7.86413937 -3.31924408 9.13574346 -5.0625 11.0625 C-6.0525 10.4025 -7.0425 9.7425 -8.0625 9.0625 C-8.7225 9.7225 -9.3825 10.3825 -10.0625 11.0625 C-9.64735103 6.2190954 -7.60041301 4.24662171 -4.0625 1.0625 C-3.0625 0.0625 -3.0625 0.0625 0 0 Z " fill="#304675" transform="translate(377.0625,727.9375)"/>
<path d="M0 0 C0 0.99 0 1.98 0 3 C0.31421071 5.00309329 0.6451046 7.00371336 1 9 C0.01 8.34 -0.98 7.68 -2 7 C-3.155 7 -4.31 7 -5.5 7 C-9 7 -9 7 -12 5 C-7.81374099 0.67419902 -6.05150555 -0.13155447 0 0 Z " fill="#425680" transform="translate(301,727)"/>
<path d="M0 0 C8.25 0 16.5 0 25 0 C27 4 27 4 26.625 6.25 C26.41875 6.8275 26.2125 7.405 26 8 C25.67 6.02 25.34 4.04 25 2 C17.41 2 9.82 2 2 2 C1.67 2.66 1.34 3.32 1 4 C0.67 2.68 0.34 1.36 0 0 Z " fill="#52B0F1" transform="translate(457,577)"/>
<path d="M0 0 C8.25 0 16.5 0 25 0 C24.34 2.31 23.68 4.62 23 7 C22.67 6.01 22.34 5.02 22 4 C22.33 3.34 22.66 2.68 23 2 C15.41 2 7.82 2 0 2 C-0.33 2.66 -0.66 3.32 -1 4 C-0.67 2.68 -0.34 1.36 0 0 Z " fill="#51B0F1" transform="translate(544,577)"/>
<path d="M0 0 C0.598125 0.825 1.19625 1.65 1.8125 2.5 C2.8953125 3.7375 2.8953125 3.7375 4 5 C4.99 5 5.98 5 7 5 C10.33333333 5 13.66666667 5 17 5 C16.01 5.66 15.02 6.32 14 7 C14 7.66 14 8.32 14 9 C15.32 9.33 16.64 9.66 18 10 C12.89670273 10.36308044 9.12536167 10.58277658 4.5 8.1875 C2 6 2 6 0 3 C0 2.01 0 1.02 0 0 Z " fill="#2A4170" transform="translate(689,749)"/>
<path d="M0 0 C0.33 0 0.66 0 1 0 C1.33 13.86 1.66 27.72 2 42 C0.35 42 -1.3 42 -3 42 C-3 41.34 -3 40.68 -3 40 C-2.01 40 -1.02 40 0 40 C0 26.8 0 13.6 0 0 Z " fill="#324977" transform="translate(322,717)"/>
<path d="M0 0 C3.625 -0.1875 3.625 -0.1875 7 0 C5.54955729 4.10958767 3.48889248 7.43258745 1 11 C0.67 10.34 0.34 9.68 0 9 C0.9375 6.875 0.9375 6.875 2 5 C0.02 5.99 -1.96 6.98 -4 8 C-2.87548273 5.0280615 -1.77706209 2.66559313 0 0 Z " fill="#2B4371" transform="translate(472,717)"/>
<path d="M0 0 C0 2.31 0 4.62 0 7 C-0.66 7 -1.32 7 -2 7 C-2 6.34 -2 5.68 -2 5 C-4.31 5.33 -6.62 5.66 -9 6 C-9 3 -9 3 -7.875 1.3125 C-5.23540902 -0.53521368 -3.14195927 -0.20946395 0 0 Z " fill="#435780" transform="translate(568,727)"/>
<path d="M0 0 C0.33 0 0.66 0 1 0 C1 5.61 1 11.22 1 17 C0.01 17 -0.98 17 -2 17 C-2 12.38 -2 7.76 -2 3 C-1.34 3 -0.68 3 0 3 C0 2.01 0 1.02 0 0 Z " fill="#405680" transform="translate(287,739)"/>
<path d="M0 0 C1.375 1.625 1.375 1.625 1.375 4.625 C0.385 4.955 -0.605 5.285 -1.625 5.625 C-2.96900833 4.63939389 -4.30107028 3.63741685 -5.625 2.625 C-8.27434822 1.91066879 -8.27434822 1.91066879 -10.625 1.625 C-10.955 0.635 -11.285 -0.355 -11.625 -1.375 C-3.08933041 -2.61404881 -3.08933041 -2.61404881 0 0 Z " fill="#415780" transform="translate(614.625,719.375)"/>
<path d="M0 0 C0.78375 0.495 1.5675 0.99 2.375 1.5 C4.78552327 3.16537965 4.78552327 3.16537965 7 3 C7 2.34 7 1.68 7 1 C9.64 1.33 12.28 1.66 15 2 C15 2.33 15 2.66 15 3 C13.35 3 11.7 3 10 3 C10 3.99 10 4.98 10 6 C11.65 6 13.3 6 15 6 C15 6.33 15 6.66 15 7 C8.94623366 7.41750113 5.818224 7.11311805 1 3 C0.67 2.01 0.34 1.02 0 0 Z " fill="#294070" transform="translate(369,752)"/>
<path d="M0 0 C1.58361328 0.74830078 1.58361328 0.74830078 3.19921875 1.51171875 C4.26785156 2.00285156 5.33648438 2.49398437 6.4375 3 C7.24574219 3.39574219 8.05398438 3.79148437 8.88671875 4.19921875 C8.55671875 4.85921875 8.22671875 5.51921875 7.88671875 6.19921875 C7.22671875 5.86921875 6.56671875 5.53921875 5.88671875 5.19921875 C4.34647879 5.12971334 2.80336887 5.11469518 1.26171875 5.13671875 C0.44445312 5.14574219 -0.3728125 5.15476562 -1.21484375 5.1640625 C-1.84132813 5.17566406 -2.4678125 5.18726563 -3.11328125 5.19921875 C-2.78328125 4.53921875 -2.45328125 3.87921875 -2.11328125 3.19921875 C-5.46923953 3.79849701 -7.49129351 5.04544311 -10.11328125 7.19921875 C-9.19198262 4.10030517 -8.44170056 2.47133761 -5.92578125 0.38671875 C-3.11328125 -0.80078125 -3.11328125 -0.80078125 0 0 Z " fill="#2D4573" transform="translate(700.11328125,728.80078125)"/>
<path d="M0 0 C2 3 2 3 2.4375 5.125 C2.7159375 6.053125 2.7159375 6.053125 3 7 C3.99 7.33 4.98 7.66 6 8 C4.68 8.99 3.36 9.98 2 11 C0.35 9.35 -1.3 7.7 -3 6 C-2.01 4.02 -1.02 2.04 0 0 Z " fill="#374E79" transform="translate(693,745)"/>
<path d="M0 0 C2.65298379 1.39630726 4.62365425 2.46969463 6.375 4.9375 C7.10948624 7.3613046 6.84172676 8.64316506 6 11 C5.34 10.01 4.68 9.02 4 8 C3.67 8.66 3.34 9.32 3 10 C2.34 10 1.68 10 1 10 C0.34 8.35 -0.32 6.7 -1 5 C-0.01 4.34 0.98 3.68 2 3 C1.34 2.67 0.68 2.34 0 2 C0 1.34 0 0.68 0 0 Z " fill="#2E4573" transform="translate(744,729)"/>
<path d="M0 0 C0.66 0.66 1.32 1.32 2 2 C0.56879256 2.55808089 -0.87030355 3.09596462 -2.3125 3.625 C-3.11300781 3.92664063 -3.91351563 4.22828125 -4.73828125 4.5390625 C-5.48464844 4.69117188 -6.23101562 4.84328125 -7 5 C-7.99 4.34 -8.98 3.68 -10 3 C-10 2.34 -10 1.68 -10 1 C-6.47940432 -0.17353189 -3.693507 -0.20146402 0 0 Z " fill="#415680" transform="translate(497,727)"/>
<path d="M0 0 C2.97 0.33 5.94 0.66 9 1 C9 1.33 9 1.66 9 2 C6.69 2 4.38 2 2 2 C2 2.99 2 3.98 2 5 C4.31 5 6.62 5 9 5 C9 5.33 9 5.66 9 6 C-0.61181435 6.56540084 -0.61181435 6.56540084 -5 3 C-5.33 2.34 -5.66 1.68 -6 1 C-4.02 1.66 -2.04 2.32 0 3 C0 2.01 0 1.02 0 0 Z " fill="#203869" transform="translate(488,753)"/>
<path d="M0 0 C-0.33 1.32 -0.66 2.64 -1 4 C-7.0546875 4.9765625 -7.0546875 4.9765625 -9 5 C-9.66 4.34 -10.32 3.68 -11 3 C-8.21756596 -1.17365106 -4.53441502 -0.22300402 0 0 Z " fill="#455982" transform="translate(385,727)"/>
<path d="M0 0 C0 2.31 0 4.62 0 7 C-2.64 7 -5.28 7 -8 7 C-8 6.67 -8 6.34 -8 6 C-6.02 6 -4.04 6 -2 6 C-2 4.68 -2 3.36 -2 2 C-4.31 2.33 -6.62 2.66 -9 3 C-8 1 -8 1 -6.1875 0.375 C-4 0 -4 0 0 0 Z " fill="#374C78" transform="translate(685,727)"/>
<path d="M0 0 C3.625 -0.1875 3.625 -0.1875 7 0 C6.39816251 2.02045442 5.72693904 4.02111039 5 6 C4.01 6.495 4.01 6.495 3 7 C3.33 5.68 3.66 4.36 4 3 C2.68 2.67 1.36 2.34 0 2 C-0.66 3.32 -1.32 4.64 -2 6 C-2 3 -2 3 0 0 Z " fill="#2F4674" transform="translate(618,745)"/>
<path d="M0 0 C1.68762851 1.6454378 3.3540349 3.31288577 5 5 C5 5.33 5 5.66 5 6 C2.36 6 -0.28 6 -3 6 C-3.66 4.68 -4.32 3.36 -5 2 C-2.03 2.495 -2.03 2.495 1 3 C0.67 2.01 0.34 1.02 0 0 Z " fill="#29406E" transform="translate(423,753)"/>
<path d="M0 0 C0.99 0.33 1.98 0.66 3 1 C2.67 2.32 2.34 3.64 2 5 C-1.3 5.33 -4.6 5.66 -8 6 C-7.67 5.34 -7.34 4.68 -7 4 C-6.34 4 -5.68 4 -5 4 C-5 3.34 -5 2.68 -5 2 C-3.68 2.33 -2.36 2.66 -1 3 C-0.67 2.01 -0.34 1.02 0 0 Z " fill="#445982" transform="translate(348,753)"/>
<path d="M0 0 C0.66 1.32 1.32 2.64 2 4 C1.01 4.99 0.02 5.98 -1 7 C-1.99 6.67 -2.98 6.34 -4 6 C-4 5.67 -4 5.34 -4 5 C-5.32 4.67 -6.64 4.34 -8 4 C-5.36 2.68 -2.72 1.36 0 0 Z " fill="#243D6C" transform="translate(650,751)"/>
<path d="M0 0 C0 4.35251187 -2.06165511 5.92809398 -5 9 C-7.171875 9.6796875 -7.171875 9.6796875 -9 10 C-8.06409496 8.8944811 -7.12620142 7.79064547 -6.1875 6.6875 C-5.66542969 6.07261719 -5.14335937 5.45773437 -4.60546875 4.82421875 C-3.12827531 3.14575321 -1.59960869 1.56117966 0 0 Z " fill="#50B0F2" transform="translate(412,470)"/>
<path d="M0 0 C0.66 0.66 1.32 1.32 2 2 C1.67 2.33 1.34 2.66 1 3 C2.65 3.33 4.3 3.66 6 4 C6 4.33 6 4.66 6 5 C-0.625 6.25 -0.625 6.25 -4 4 C-2.68 2.68 -1.36 1.36 0 0 Z " fill="#2B4272" transform="translate(293,728)"/>
<path d="M0 0 C1.32 1.32 2.64 2.64 4 4 C3.67 4.66 3.34 5.32 3 6 C0.03 5.505 0.03 5.505 -3 5 C-3.33 4.01 -3.66 3.02 -4 2 C-2.68 2 -1.36 2 0 2 C0 1.34 0 0.68 0 0 Z " fill="#41557F" transform="translate(706,753)"/>
<path d="M0 0 C1.65 0.33 3.3 0.66 5 1 C5.33 1.99 5.66 2.98 6 4 C2.535 5.485 2.535 5.485 -1 7 C-0.67 4.69 -0.34 2.38 0 0 Z " fill="#425982" transform="translate(597,718)"/>
<path d="M0 0 C0.33 0 0.66 0 1 0 C1 3.63 1 7.26 1 11 C-0.32 11 -1.64 11 -3 11 C-2.67 9.68 -2.34 8.36 -2 7 C-1.34 7.33 -0.68 7.66 0 8 C0 5.36 0 2.72 0 0 Z " fill="#3B517B" transform="translate(656,748)"/>
<path d="M0 0 C1.65 0 3.3 0 5 0 C5.66 1.32 6.32 2.64 7 4 C4.69 3.67 2.38 3.34 0 3 C0 2.01 0 1.02 0 0 Z " fill="#445981" transform="translate(379,755)"/>
<path d="M0 0 C2.64 0 5.28 0 8 0 C7.67 0.66 7.34 1.32 7 2 C6.01 2.33 5.02 2.66 4 3 C3.67 3.66 3.34 4.32 3 5 C2.01 3.35 1.02 1.7 0 0 Z " fill="#1D3667" transform="translate(443,717)"/>
</svg>
